<?xml version="1.0" encoding="UTF-8"?>
<svg width="250px" height="126px" viewBox="0 0 250 126" version="1.1" xmlns="http://www.w3.org/2000/svg" xmlns:xlink="http://www.w3.org/1999/xlink">
    <title>pictogram</title>
    <g id="pictogram" stroke="none" stroke-width="1" fill="none" fill-rule="evenodd">
        <path d="M231.850006,18.449997 C231.800003,18.389999 231.740005,18.339996 231.690002,18.290001 C231.300003,17.910004 230.889999,17.550003 230.479996,17.190002 C219.189995,6.540001 204,0 187.300003,0 C152.560001,0 124.300003,28.259995 124.300003,63 C124.300003,79.68 130.829997,94.860001 141.449997,106.139999 C141.869997,106.620003 142.300003,107.090004 142.75,107.540001 C142.75,107.540001 142.829994,107.620003 142.869995,107.660004 C143.289995,108.080002 143.729992,108.480003 144.179993,108.870003 C155.459991,119.480003 170.629993,126 187.289993,126 C222.029999,126 250.289993,97.740005 250.289993,63 C250.289993,46.410004 243.830009,31.309998 233.320007,20.050003 C232.850006,19.5 232.359993,18.970001 231.839996,18.449997 L231.850006,18.449997 Z M193.5,69.199997 C167.379997,95.32 150.270002,103.82 147.050003,103.25 C146.440002,100 154.960007,82.93 181.100006,56.790001 C207.220009,30.669998 224.240005,22.150002 227.550003,22.739998 C228.160004,25.989998 219.629997,43.059998 193.5,69.199997 Z M221.220001,18.18 C218.040001,19.459999 214.230003,21.599998 209.740005,24.620003 C200.000008,31.169998 188.32,41.089996 176.860001,52.550003 C165.389999,64.010002 155.469994,75.690002 148.929993,85.43 C145.909992,89.919998 143.770006,93.730003 142.490005,96.910004 C135.110005,81.580002 142.720001,56.910004 161.970001,37.660004 C176.350002,23.290001 193.73999,15.400002 208.009994,15.400002 C212.849991,15.400002 217.340004,16.309998 221.220001,18.18 Z M153.380005,107.809998 C156.560005,106.529999 160.369995,104.389999 164.860001,101.370003 C174.599998,94.82 186.280006,84.900002 197.740005,73.440002 C209.210007,61.980003 219.129997,50.300003 225.669998,40.559998 C228.689995,36.07 230.830002,32.259995 232.110001,29.080002 C239.5,44.410004 231.880005,69.080002 212.630005,88.339996 C193.380005,107.589996 168.699997,115.209999 153.369995,107.82 L153.380005,107.809998 Z M187.300003,6 C194.270004,6 200.949997,7.260002 207.119995,9.559998 C191.359993,9.900002 172.889999,18.259995 157.720001,33.419998 C142.550001,48.589996 134.200001,67.069992 133.860001,82.839996 C131.56,76.659996 130.289993,69.980003 130.289993,63 C130.289993,31.57 155.859993,6 187.289993,6 L187.300003,6 Z M187.300003,120 C180.310005,120 173.619991,118.729996 167.429993,116.419998 C183.199993,116.099998 201.690002,107.75 216.880005,92.57 C232.050003,77.400002 240.400009,58.93 240.740005,43.169998 C243.040008,49.349998 244.300003,56.029999 244.300003,63 C244.300003,94.43 218.730003,120 187.300003,120 Z" id="Fill-1" fill="#000000"></path>
        <polygon id="Fill-2" fill="#000000" points="68.159992 52.109993 58.21999 57.839993 58.21999 46.429993 52.21999 46.429993 52.21999 57.839993 42.299988 52.109993 39.299988 57.299992 49.229988 63.039993 39.299988 68.769989 42.299988 73.969994 52.21999 68.23999 52.21999 79.769989 58.21999 79.769989 58.21999 68.229996 68.159992 73.969994 71.159992 68.769989 61.229988 63.039993 71.159992 57.299992"></polygon>
        <polygon id="Fill-3" fill="#000000" points="66.089992 107.409973 68.589992 103.079971 58.229996 97.099968 58.229996 90.779968 52.229996 90.779968 52.229996 97.099968 41.869995 103.079971 44.369995 107.409973 52.229996 102.869972 52.229996 110.349968 41.869995 116.339965 44.369995 120.669967 52.229996 116.129966 52.229996 123.10997 58.229996 123.10997 58.229996 116.129966 66.089992 120.669967 68.589992 116.339965 58.229996 110.349968 58.229996 102.869972"></polygon>
        <polygon id="Fill-4" fill="#000000" points="44.380005 18.799984 41.880005 23.129984 52.230003 29.119986 52.230003 35.449986 58.230003 35.449986 58.230003 29.119986 68.600002 23.129984 66.100002 18.799984 58.230003 23.339985 58.230003 15.859986 68.600002 9.879986 66.100002 5.549986 58.230003 10.089985 58.230003 3.109986 52.230003 3.109986 52.230003 10.089985 44.380005 5.549986 41.880005 9.879986 52.230003 15.859986 52.230003 23.339985"></polygon>
        <polygon id="Fill-5" fill="#000000" points="29.809999 74.229996 24.34 77.389992 13.98 71.399994 11.48 75.729996 19.34 80.269989 12.86 84.019989 2.5 78.039994 0 82.369995 7.86 86.909996 1.82 90.399994 4.82 95.599991 10.86 92.109993 10.86 101.179993 15.86 101.179993 15.86 89.219994 22.34 85.469994 22.34 94.549996 27.34 94.549996 27.34 82.579995 32.810001 79.419991"></polygon>
        <polygon id="Fill-6" fill="#000000" points="108.690002 35.609988 105.690002 30.409987 99.650001 33.899989 99.650001 24.829987 94.650001 24.829987 94.650001 36.789988 88.169998 40.529986 88.169998 31.459986 83.169998 31.459986 83.169998 43.419985 77.690002 46.579989 80.690002 51.779986 86.160003 48.619986 96.529998 54.599986 99.029998 50.269988 91.160003 45.729987 97.639999 41.989989 108 47.969988 110.5 43.639986 102.639999 39.099986"></polygon>
        <polygon id="Fill-7" fill="#000000" points="2.5 48.029983 12.86 42.049984 19.34 45.789986 11.48 50.329986 13.98 54.659984 24.34 48.679985 29.809999 51.839985 32.810001 46.639984 27.34 43.479984 27.34 31.519985 22.34 31.519985 22.34 40.599983 15.86 36.849983 15.86 24.889984 10.86 24.889984 10.86 33.969986 4.82 30.479984 1.82 35.669983 7.86 39.159984 0 43.699985"></polygon>
        <polygon id="Fill-8" fill="#000000" points="107.760002 77.979973 97.410004 83.949967 90.919998 80.209969 98.790001 75.669968 96.290001 71.339966 85.919998 77.329972 80.449997 74.169968 77.449997 79.35997 82.919998 82.519967 82.919998 94.489968 87.919998 94.489968 87.919998 85.409974 94.400002 89.149971 94.400002 101.119973 99.400002 101.119973 99.400002 92.029969 105.449997 95.529969 108.449997 90.329972 102.410004 86.839966 110.260002 82.309967"></polygon>
    </g>
</svg>